<svg width="1242" height="2688" viewBox="0 0 1242 2688" fill="none" xmlns="http://www.w3.org/2000/svg">
  <rect width="1242" height="2688" fill="#F8FAFF"/>

  <circle cx="322" cy="302" r="374" fill="#EAF1FF" opacity="0.34"/>
  <circle cx="970" cy="1768" r="326" fill="#EAFBF4" opacity="0.5"/>
  <circle cx="1020" cy="186" r="418" fill="#F3F6FF" opacity="0.45"/>

  <g opacity="0.28">
    <circle cx="50" cy="46" r="2" fill="#C9D3E6"/>
    <circle cx="238" cy="88" r="2" fill="#C9D3E6"/>
    <circle cx="428" cy="44" r="2" fill="#C9D3E6"/>
    <circle cx="686" cy="80" r="2" fill="#C9D3E6"/>
    <circle cx="912" cy="38" r="2" fill="#C9D3E6"/>
    <circle cx="1154" cy="96" r="2" fill="#C9D3E6"/>
    <circle cx="116" cy="538" r="2" fill="#C9D3E6"/>
    <circle cx="372" cy="582" r="2" fill="#C9D3E6"/>
    <circle cx="664" cy="520" r="2" fill="#C9D3E6"/>
    <circle cx="1050" cy="604" r="2" fill="#C9D3E6"/>
    <circle cx="106" cy="1188" r="2" fill="#C9D3E6"/>
    <circle cx="448" cy="1246" r="2" fill="#C9D3E6"/>
    <circle cx="826" cy="1184" r="2" fill="#C9D3E6"/>
    <circle cx="1128" cy="1298" r="2" fill="#C9D3E6"/>
    <circle cx="176" cy="2070" r="2" fill="#C9D3E6"/>
    <circle cx="516" cy="2118" r="2" fill="#C9D3E6"/>
    <circle cx="918" cy="2072" r="2" fill="#C9D3E6"/>
    <circle cx="1184" cy="2180" r="2" fill="#C9D3E6"/>
  </g>

  <filter id="softShadow" x="381" y="947" width="480" height="480" filterUnits="userSpaceOnUse" color-interpolation-filters="sRGB">
    <feFlood flood-opacity="0" result="BackgroundImageFix"/>
    <feColorMatrix in="SourceAlpha" type="matrix" values="0 0 0 0 0 0 0 0 0 0 0 0 0 0 0 0 0 0 127 0" result="hardAlpha"/>
    <feOffset dy="20"/>
    <feGaussianBlur stdDeviation="32"/>
    <feColorMatrix type="matrix" values="0 0 0 0 0.06 0 0 0 0 0.13 0 0 0 0 0.27 0 0 0 0.12 0"/>
    <feBlend mode="normal" in2="BackgroundImageFix" result="effect1_dropShadow"/>
    <feBlend mode="normal" in="SourceGraphic" in2="effect1_dropShadow" result="shape"/>
  </filter>

  <g filter="url(#softShadow)">
    <rect x="471" y="1008" width="300" height="300" rx="70" fill="#FFFFFF"/>
    <rect x="472.5" y="1009.5" width="297" height="297" rx="68.5" stroke="#E4E9F2" stroke-width="3"/>
    <g stroke="#0B4AAE" stroke-width="16" stroke-linejoin="round">
      <path d="M562 1122H680C695.464 1122 708 1134.54 708 1150V1210C708 1225.46 695.464 1238 680 1238H562C546.536 1238 534 1225.46 534 1210V1150C534 1134.54 546.536 1122 562 1122Z"/>
      <path d="M590 1122V1096C590 1087.16 597.163 1080 606 1080H636C644.837 1080 652 1087.16 652 1096V1122"/>
      <path d="M621 1154V1208"/>
      <path d="M594 1181H648"/>
    </g>
  </g>

  <text x="621" y="1473" text-anchor="middle" fill="#0B4AAE" font-family="Arial, Helvetica, sans-serif" font-size="80" font-weight="800" letter-spacing="-2">
    Smart Health
  </text>
  <rect x="532" y="1526" width="178" height="12" rx="6" fill="#9EC2F0"/>

  <g>
    <rect x="258" y="2398" width="726" height="88" rx="44" fill="#F1FBF8" stroke="#CFE1F4" stroke-width="3"/>
    <path d="M337 2441C351 2437 357 2431 361 2417C365 2431 371 2437 385 2441C371 2445 365 2451 361 2465C357 2451 351 2445 337 2441Z" fill="#0B4AAE"/>
    <path d="M393 2424C402 2421 407 2416 410 2406C413 2416 418 2421 428 2424C418 2427 413 2432 410 2442C407 2432 402 2427 393 2424Z" fill="#0B4AAE"/>
    <text x="621" y="2460" text-anchor="middle" fill="#374151" font-family="Arial, Helvetica, sans-serif" font-size="42" font-weight="800" letter-spacing="4">
      AI-POWERED WELLNESS
    </text>
  </g>

  <rect x="532" y="2539" width="178" height="10" rx="5" fill="#0B4AAE"/>
  <text x="621" y="2610" text-anchor="middle" fill="#6B7280" font-family="Arial, Helvetica, sans-serif" font-size="34" font-weight="700">
    v2.4.0 • Clinical Intelligence
  </text>
</svg>
